
<svg width="207" height="167" viewBox="0 0 207 167" fill="none" xmlns="http://www.w3.org/2000/svg">
    <path d="M35.68 28.48H0.48V3.18H62.74V164H35.68V28.48ZM70.3162 83.92C70.3162 33.98 97.1562 0.0999858 138.296 0.0999858C179.436 0.0999858 206.496 33.98 206.496 83.92C206.496 133.64 180.976 166.86 138.296 166.86C95.6162 166.86 70.3162 133.64 70.3162 83.92ZM98.0363 83.92C98.0363 121.1 112.996 142 138.296 142C163.816 142 178.776 121.1 178.776 83.92C178.776 45.86 163.816 24.96 138.296 24.96C112.996 24.96 98.0363 45.86 98.0363 83.92Z" fill="url(#paint0_linear_5_1039)"/>
    <defs>
        <linearGradient id="paint0_linear_5_1039" x1="126" y1="-11" x2="126" y2="169" gradientUnits="userSpaceOnUse">
            <stop stop-color="#21202E"/>
            <stop offset="1" stop-color="#007061"/>
        </linearGradient>
    </defs>
</svg>
