<svg width="117" height="164" viewBox="0 0 117 164" fill="none" xmlns="http://www.w3.org/2000/svg">
    <path d="M55.9 163.64C22.24 163.64 0.0200002 142.08 0.0200002 109.52H27.96C27.96 127.78 38.74 138.56 56.56 138.56C75.48 138.56 87.58 126.24 87.58 106.66C87.58 87.96 76.36 75.2 57 75.2C44.68 75.2 33.46 81.36 27.74 89.72L2.88 84.44L22.68 0.179999H106.5V26.14H42.92L34.34 59.58C42.04 54.52 51.72 51.66 62.72 51.66C94.84 51.66 116.18 73.44 116.18 105.12C116.18 139.88 91.76 163.64 55.9 163.64Z"
          fill="url(#paint0_linear_4_381)"/>
    <defs>
        <linearGradient id="paint0_linear_4_381" x1="56" y1="-14" x2="56" y2="166" gradientUnits="userSpaceOnUse">
            <stop stop-color="#21202E"/>
            <stop offset="1" stop-color="#007061"/>
        </linearGradient>
    </defs>
</svg>
