<svg width="122" height="164" viewBox="0 0 122 164" fill="none" xmlns="http://www.w3.org/2000/svg">
    <path d="M25.34 47.48L60.1 0.179999H92.22L53.72 51.44C57.68 50.34 61.86 49.68 65.82 49.68C99.04 49.68 121.48 73 121.48 105.56C121.48 139.88 95.96 163.86 61.64 163.86C26.88 163.86 0.92 138.34 0.92 105.34C0.92 85.98 7.3 71.9 25.34 47.48ZM29.74 105.56C29.74 125.14 42.72 138.78 61.64 138.78C79.9 138.78 93.1 125.14 93.1 105.56C93.1 86.2 80.12 72.78 61.64 72.78C42.5 72.78 29.74 86.2 29.74 105.56Z" fill="url(#paint0_linear_4_392)"/>
    <defs>
        <linearGradient id="paint0_linear_4_392" x1="60.5" y1="-14" x2="60.5" y2="166" gradientUnits="userSpaceOnUse">
            <stop stop-color="#21202E"/>
            <stop offset="1" stop-color="#007061"/>
        </linearGradient>
    </defs>
</svg>
