
<svg width="113" height="167" viewBox="0 0 113 167" fill="none" xmlns="http://www.w3.org/2000/svg">
    <path d="M0.240001 118.46C0.240001 99.32 11.02 83.92 27.74 77.54C13.66 71.16 5.96 59.06 5.96 43.44C5.96 17.92 28.62 0.319996 61.84 0.319996C94.84 0.319996 117.06 17.7 117.06 43.88C117.06 59.5 109.14 71.6 94.84 77.54C111.78 83.48 122.78 99.1 122.78 118.46C122.78 147.5 98.8 166.64 61.4 166.64C24.22 166.64 0.240001 147.72 0.240001 118.46ZM31.48 45.86C31.48 59.28 43.14 67.86 61.4 67.86C79.44 67.86 90.88 59.5 90.88 46.08C90.88 32.66 79.44 24.3 61.4 24.3C43.14 24.3 31.48 32.66 31.48 45.86ZM27.74 116.48C27.74 132.1 40.72 141.78 61.62 141.78C82.08 141.78 95.06 132.1 95.06 116.48C95.06 100.86 82.08 91.18 61.4 91.18C40.72 91.18 27.74 100.86 27.74 116.48Z" fill="url(#paint0_linear_5_926)"/>
    <defs>
        <linearGradient id="paint0_linear_5_926" x1="60" y1="-11" x2="60" y2="169" gradientUnits="userSpaceOnUse">
            <stop stop-color="#21202E"/>
            <stop offset="1" stop-color="#007061"/>
        </linearGradient>
    </defs>
</svg>
