
<svg width="122" height="164" viewBox="0 0 122 164" fill="none" xmlns="http://www.w3.org/2000/svg">
    <path d="M97.06 116.7L62.3 164H30.18L68.68 112.74C64.72 113.84 60.54 114.5 56.58 114.5C23.36 114.5 0.92 91.18 0.92 58.62C0.92 24.3 26.44 0.319996 60.76 0.319996C95.52 0.319996 121.48 25.84 121.48 58.84C121.48 78.2 115.1 92.28 97.06 116.7ZM92.66 58.62C92.66 39.04 79.68 25.4 60.76 25.4C42.28 25.4 29.3 39.04 29.3 58.62C29.3 77.98 42.28 91.4 60.76 91.4C79.9 91.4 92.66 77.98 92.66 58.62Z" fill="url(#paint0_linear_5_1058)"/>
    <defs>
        <linearGradient id="paint0_linear_5_1058" x1="60.5" y1="-11" x2="60.5" y2="169" gradientUnits="userSpaceOnUse">
            <stop stop-color="#21202E"/>
            <stop offset="1" stop-color="#007061"/>
        </linearGradient>
    </defs>
</svg>
